<mxfile host="20161dcf-5a7d-4579-bbc9-6497d453c03c" modified="2020-08-07T13:38:22.211Z" agent="5.0 (X11; Linux x86_64) AppleWebKit/537.36 (KHTML, like Gecko) Code/1.47.3 Chrome/78.0.3904.130 Electron/7.3.2 Safari/537.36" etag="yzOjKSgObakwqzUQpqfh" version="13.1.3">
    <diagram id="lmDyUN--uQgAU-mpUr-D" name="Page-1">
        <mxGraphModel dx="371" dy="1560" grid="1" gridSize="10" guides="1" tooltips="1" connect="1" arrows="1" fold="1" page="1" pageScale="1" pageWidth="850" pageHeight="1100" math="0" shadow="0">
            <root>
                <mxCell id="0"/>
                <mxCell id="1" parent="0"/>
                <mxCell id="6-lK_NyL5de7L4ZogA_d-13" value="" style="edgeStyle=entityRelationEdgeStyle;fontSize=12;html=1;endArrow=ERmany;startArrow=ERmany;exitX=1;exitY=0.5;exitDx=0;exitDy=0;" parent="1" source="6-lK_NyL5de7L4ZogA_d-7" target="6-lK_NyL5de7L4ZogA_d-2" edge="1">
                    <mxGeometry width="100" height="100" relative="1" as="geometry">
                        <mxPoint x="200" y="-250" as="sourcePoint"/>
                        <mxPoint x="300" y="-350" as="targetPoint"/>
                    </mxGeometry>
                </mxCell>
                <mxCell id="6-lK_NyL5de7L4ZogA_d-14" value="" style="edgeStyle=entityRelationEdgeStyle;fontSize=12;html=1;endArrow=ERzeroToMany;startArrow=ERmandOne;entryX=0;entryY=0.25;entryDx=0;entryDy=0;" parent="1" source="6-lK_NyL5de7L4ZogA_d-5" target="6-lK_NyL5de7L4ZogA_d-7" edge="1">
                    <mxGeometry width="100" height="100" relative="1" as="geometry">
                        <mxPoint x="190" y="-158" as="sourcePoint"/>
                        <mxPoint x="240" y="-468" as="targetPoint"/>
                    </mxGeometry>
                </mxCell>
                <object label="SONGS" Title="" Artist="" Album="" id="6-lK_NyL5de7L4ZogA_d-6">
                    <mxCell style="swimlane;childLayout=stackLayout;horizontal=1;startSize=30;horizontalStack=0;fillColor=#008cff;fontColor=#FFFFFF;rounded=1;fontSize=14;fontStyle=0;strokeWidth=2;resizeParent=0;resizeLast=1;shadow=0;dashed=0;align=center;" parent="1" vertex="1">
                        <mxGeometry x="50" y="-650" width="240" height="250" as="geometry"/>
                    </mxCell>
                </object>
                <mxCell id="6-lK_NyL5de7L4ZogA_d-7" value="+title: String&#10;+artist: String&#10;+album: String&#10;+release_year: Number&#10;+duration: Number&#10;+review: [Review]&#10;+genre: [Genres]&#10;&#10;&#10;+rating: Number&#10;+url: String" style="align=left;strokeColor=none;fillColor=none;spacingLeft=4;fontSize=12;verticalAlign=top;resizable=0;rotatable=0;part=1;" parent="6-lK_NyL5de7L4ZogA_d-6" vertex="1">
                    <mxGeometry y="30" width="240" height="220" as="geometry"/>
                </mxCell>
                <object label="GENRE" Title="" Artist="" Album="" id="6-lK_NyL5de7L4ZogA_d-1">
                    <mxCell style="swimlane;childLayout=stackLayout;horizontal=1;startSize=30;horizontalStack=0;fillColor=#008cff;fontColor=#FFFFFF;rounded=1;fontSize=14;fontStyle=0;strokeWidth=2;resizeParent=0;resizeLast=1;shadow=0;dashed=0;align=center;" parent="1" vertex="1">
                        <mxGeometry x="560" y="-625" width="210" height="120" as="geometry">
                            <mxRectangle x="560" y="-625" width="90" height="30" as="alternateBounds"/>
                        </mxGeometry>
                    </mxCell>
                </object>
                <mxCell id="6-lK_NyL5de7L4ZogA_d-2" value="+name: String&#10;&#10;&#10;+url: String" style="align=left;strokeColor=none;fillColor=none;spacingLeft=4;fontSize=12;verticalAlign=top;resizable=0;rotatable=0;part=1;" parent="6-lK_NyL5de7L4ZogA_d-1" vertex="1">
                    <mxGeometry y="30" width="210" height="90" as="geometry"/>
                </mxCell>
                <object label="REVIEW" Title="" Artist="" Album="" id="6-lK_NyL5de7L4ZogA_d-4">
                    <mxCell style="swimlane;childLayout=stackLayout;horizontal=1;startSize=30;horizontalStack=0;fillColor=#008cff;fontColor=#FFFFFF;rounded=1;fontSize=14;fontStyle=0;strokeWidth=2;resizeParent=0;resizeLast=1;shadow=0;dashed=0;align=center;" parent="1" vertex="1">
                        <mxGeometry x="540" y="-440" width="220" height="170" as="geometry"/>
                    </mxCell>
                </object>
                <mxCell id="6-lK_NyL5de7L4ZogA_d-5" value="+star: Number&#10;+comment: String&#10;&#10;&#10;+url: String" style="align=left;strokeColor=none;fillColor=none;spacingLeft=4;fontSize=12;verticalAlign=top;resizable=0;rotatable=0;part=1;" parent="6-lK_NyL5de7L4ZogA_d-4" vertex="1">
                    <mxGeometry y="30" width="220" height="140" as="geometry"/>
                </mxCell>
            </root>
        </mxGraphModel>
    </diagram>
</mxfile>